<svg width="69" height="24" viewBox="0 0 69 24" fill="none" xmlns="http://www.w3.org/2000/svg">
<path d="M8.12249 4.60573C8.50171 3.9118 9.49829 3.9118 9.87751 4.60573L10.9602 6.58693C11.1657 6.96292 11.5879 7.16622 12.0099 7.09244L14.234 6.70368C15.0129 6.56751 15.6343 7.34666 15.3282 8.07581L14.4543 10.1576C14.2884 10.5526 14.3927 11.0095 14.7135 11.2934L16.4041 12.7899C16.9963 13.314 16.7745 14.2856 16.0136 14.5009L13.8412 15.1156C13.4289 15.2323 13.1367 15.5986 13.1147 16.0265L12.9989 18.2813C12.9583 19.071 12.0604 19.5034 11.4176 19.0427L9.58254 17.7275C9.23429 17.4779 8.76571 17.4779 8.41746 17.7275L6.58236 19.0427C5.9396 19.5034 5.04172 19.071 5.00113 18.2813L4.88526 16.0265C4.86327 15.5986 4.57112 15.2323 4.15884 15.1156L1.98638 14.5009C1.22546 14.2856 1.0037 13.314 1.59585 12.7899L3.28646 11.2934C3.6073 11.0095 3.71156 10.5526 3.54571 10.1576L2.6718 8.07581C2.36571 7.34666 2.98706 6.56751 3.76604 6.70368L5.99007 7.09244C6.41214 7.16622 6.83431 6.96292 7.03978 6.58693L8.12249 4.60573Z" fill="#149BFC"/>
<path d="M21.4347 19H30.4759V16.7912H24.0696V4.45455H21.4347V19ZM37.4077 19.2131C40.6037 19.2131 42.6349 16.9616 42.6349 13.5881C42.6349 10.2074 40.6037 7.94886 37.4077 7.94886C34.2116 7.94886 32.1804 10.2074 32.1804 13.5881C32.1804 16.9616 34.2116 19.2131 37.4077 19.2131ZM37.4219 17.1534C35.6534 17.1534 34.7869 15.5767 34.7869 13.581C34.7869 11.5852 35.6534 9.98722 37.4219 9.98722C39.1619 9.98722 40.0284 11.5852 40.0284 13.581C40.0284 15.5767 39.1619 17.1534 37.4219 17.1534ZM49.5614 23.3182C52.5089 23.3182 54.6822 21.9688 54.6822 19.1776V8.09091H52.1467V9.89489H52.0046C51.614 9.10653 50.7972 7.94886 48.8725 7.94886C46.3512 7.94886 44.3697 9.9233 44.3697 13.5099C44.3697 17.0682 46.3512 18.8438 48.8654 18.8438C50.7333 18.8438 51.6069 17.8423 52.0046 17.0398H52.1325V19.1065C52.1325 20.7116 51.0671 21.3722 49.604 21.3722C48.0558 21.3722 47.3739 20.6406 47.0614 20.0014L44.7461 20.5625C45.2148 22.0895 46.7844 23.3182 49.5614 23.3182ZM49.5827 16.8267C47.8853 16.8267 46.9904 15.5057 46.9904 13.4957C46.9904 11.5142 47.8711 10.0582 49.5827 10.0582C51.2376 10.0582 52.1467 11.429 52.1467 13.4957C52.1467 15.5767 51.2234 16.8267 49.5827 16.8267ZM62.0756 19.2131C65.2717 19.2131 67.3029 16.9616 67.3029 13.5881C67.3029 10.2074 65.2717 7.94886 62.0756 7.94886C58.8796 7.94886 56.8484 10.2074 56.8484 13.5881C56.8484 16.9616 58.8796 19.2131 62.0756 19.2131ZM62.0898 17.1534C60.3214 17.1534 59.4549 15.5767 59.4549 13.581C59.4549 11.5852 60.3214 9.98722 62.0898 9.98722C63.8299 9.98722 64.6964 11.5852 64.6964 13.581C64.6964 15.5767 63.8299 17.1534 62.0898 17.1534Z" fill="black"/>
</svg>
